<?xml version="1.0" standalone="no"?>
<!DOCTYPE svg PUBLIC "-//W3C//DTD SVG 20010904//EN"
 "http://www.w3.org/TR/2001/REC-SVG-20010904/DTD/svg10.dtd">
<svg version="1.0" xmlns="http://www.w3.org/2000/svg"
 width="519.000000pt" height="322.000000pt" viewBox="0 0 519.000000 322.000000"
 preserveAspectRatio="xMidYMid meet">

<g transform="translate(0.000000,322.000000) scale(0.100000,-0.100000)"
fill="#000000" stroke="none">
<path d="M0 1610 l0 -1610 2595 0 2595 0 0 1610 0 1610 -2595 0 -2595 0 0
-1610z m4791 1205 c24 -17 57 -50 74 -74 l30 -43 0 -1048 0 -1048 -30 -43
c-17 -24 -50 -57 -74 -74 l-43 -30 -2125 -3 c-1477 -1 -2137 1 -2165 8 -50 14
-111 69 -137 124 -21 42 -21 53 -21 1067 0 1150 -5 1067 75 1138 75 65 -102
60 2237 58 l2136 -2 43 -30z"/>
<path d="M1458 2151 c-70 -10 -92 -24 -212 -134 -108 -99 -124 -135 -58 -123
20 3 55 9 77 12 l41 6 -3 -38 c-2 -22 -12 -163 -24 -314 l-21 -275 -44 -86
c-24 -47 -44 -91 -44 -98 0 -11 35 -13 183 -8 152 4 199 9 282 31 123 32 262
99 334 163 177 155 239 438 139 626 -54 101 -179 191 -309 222 -77 18 -262 27
-341 16z m245 -225 c81 -34 129 -128 135 -263 10 -206 -80 -337 -247 -359 -50
-6 -51 -6 -51 19 0 68 49 597 57 610 7 12 71 8 106 -7z"/>
<path d="M2455 2126 l-130 -31 -12 -185 c-7 -102 -22 -299 -33 -439 -18 -225
-23 -258 -45 -302 -45 -88 -62 -83 254 -77 207 4 286 9 307 19 21 10 35 30 51
70 30 75 48 147 40 155 -4 4 -80 0 -169 -9 -89 -9 -164 -15 -166 -12 -3 2 12
186 32 407 20 222 36 411 36 421 0 22 -9 21 -165 -17z"/>
<path d="M3210 2130 l-85 -28 -12 -54 c-7 -29 -44 -201 -83 -383 -62 -293
-104 -477 -117 -512 -7 -19 38 -42 127 -64 61 -16 84 -18 90 -9 4 6 33 125 66
265 32 140 61 249 65 242 3 -7 16 -52 28 -102 13 -49 39 -139 59 -200 39 -117
55 -134 92 -100 10 9 76 122 146 250 71 129 129 233 130 232 4 -4 24 -159 44
-341 21 -187 32 -241 53 -249 18 -7 207 48 224 66 13 13 13 29 -2 148 -46 376
-117 845 -129 857 -11 12 -33 8 -132 -20 l-118 -33 -90 -192 c-50 -105 -94
-194 -97 -197 -3 -3 -37 97 -76 222 -45 144 -76 228 -84 229 -8 1 -52 -11 -99
-27z"/>
</g>
</svg>
